<?xml version="1.0" standalone="no"?>
<!DOCTYPE svg PUBLIC "-//W3C//DTD SVG 20010904//EN"
 "http://www.w3.org/TR/2001/REC-SVG-20010904/DTD/svg10.dtd">
<svg version="1.0" xmlns="http://www.w3.org/2000/svg"
 width="100.000000pt" height="100.000000pt" viewBox="0 0 100.000000 100.000000"
 preserveAspectRatio="xMidYMid meet">

<g transform="translate(0.000000,100.000000) scale(0.100000,-0.100000)"
fill="#000000" stroke="none">
<path d="M405 847 c-109 -37 -186 -103 -232 -202 -24 -51 -28 -73 -28 -145 0
-72 4 -94 28 -146 36 -77 104 -145 182 -181 51 -24 73 -28 145 -28 72 0 94 4
145 28 78 36 146 104 182 181 24 52 28 74 28 146 0 72 -4 94 -28 146 -57 123
-177 204 -311 211 -41 1 -88 -3 -111 -10z m236 -39 c84 -39 165 -131 184 -209
l7 -27 -56 28 c-31 16 -80 34 -110 41 -46 10 -57 17 -67 42 -14 34 -63 67 -99
67 -36 0 -85 -33 -99 -67 -10 -25 -21 -32 -67 -42 -30 -7 -79 -25 -109 -40
-30 -15 -55 -23 -55 -17 0 6 9 31 20 55 77 170 283 247 451 169z m-80 -107
c20 -20 29 -39 29 -61 0 -22 -9 -41 -29 -61 -40 -39 -82 -39 -122 0 -20 20
-29 39 -29 61 0 22 9 41 29 61 40 39 82 39 122 0z m-161 -102 c15 -36 63 -69
100 -69 37 0 85 33 100 69 15 37 18 37 104 11 63 -20 136 -72 136 -99 0 -8
-94 -11 -340 -11 -246 0 -340 3 -340 11 0 25 73 79 133 98 84 27 93 26 107
-10z m430 -129 c-16 -30 -77 -66 -145 -87 -84 -25 -286 -25 -370 0 -68 21
-129 57 -145 87 -11 20 -8 20 330 20 338 0 341 0 330 -20z m-496 -111 c46 -10
57 -17 67 -42 14 -34 63 -67 99 -67 36 0 85 33 99 67 10 25 21 32 67 42 30 7
79 25 110 41 l56 28 -7 -27 c-19 -78 -97 -166 -184 -209 -48 -23 -69 -27 -141
-27 -72 0 -93 4 -141 27 -87 43 -165 131 -184 209 l-7 27 56 -28 c31 -16 80
-34 110 -41z m256 -20 c0 -24 -59 -69 -90 -69 -31 0 -90 45 -90 69 0 7 32 11
90 11 58 0 90 -4 90 -11z"/>
<path d="M466 674 c-9 -8 -16 -24 -16 -34 0 -43 54 -65 84 -34 31 30 9 84 -34
84 -10 0 -26 -7 -34 -16z m64 -9 c26 -32 -13 -81 -47 -59 -35 22 -23 74 17 74
10 0 23 -7 30 -15z"/>
<path d="M250 322 c0 -18 78 -82 125 -104 75 -34 181 -32 255 5 57 28 54 28
-40 -6 -102 -36 -239 -1 -309 79 -17 19 -31 31 -31 26z"/>
<path d="M709 283 c-13 -16 -12 -17 4 -4 16 13 21 21 13 21 -2 0 -10 -8 -17
-17z"/>
</g>
</svg>
